<svg xmlns="http://www.w3.org/2000/svg" viewBox="0 0 130 130" id="add-user">
  <circle cx="65" cy="65" r="64" fill="#705C85"></circle>
  <path fill="#5F4D77" d="M120.017 57.246h8.5c-.073-.598-.14-1.196-.228-1.789h-8.272c-.491 0-.894.403-.894.895s.403.894.894.894zM99.993 36.403h-5.808a.897.897 0 0 1-.894-.894c0-.492.403-.894.894-.894h5.808c.492 0 .894.402.894.894a.897.897 0 0 1-.894.894zm-64.138-.894h5.807c.492 0 .894.402.894.894a.897.897 0 0 1-.894.894h-5.807a.897.897 0 0 1-.894-.894c0-.492.402-.894.894-.894zm8.807 0h3.108c.492 0 .894.402.894.894a.897.897 0 0 1-.894.894h-3.108a.897.897 0 0 1-.894-.894c0-.492.403-.894.894-.894zm63.946 67.721h7.72c.437-.586.854-1.187 1.271-1.788h-8.99c-.492 0-.894.402-.894.894s.402.894.893.894zm-5.818-1.788h2.361c.492 0 .894.402.894.894a.897.897 0 0 1-.894.894h-2.36a.897.897 0 0 1-.895-.894c0-.492.402-.894.894-.894zM11.576 82.865h-8.03c.175.598.352 1.196.542 1.787h7.488a.896.896 0 0 0 .894-.893.897.897 0 0 0-.894-.894z"></path>
  <circle cx="14.321" cy="83.759" r=".894" fill="#5F4D77"></circle>
  <circle cx="91.185" cy="35.509" r=".894" fill="#5F4D77"></circle>
  <path fill="#5F4D77" d="M11.683 43.307a.895.895 0 1 0 0-1.79H5.465c-.234.594-.471 1.187-.688 1.79h6.906zm11.61-23.668a.897.897 0 0 0 .894-.894.897.897 0 0 0-.894-.894h-1.564a64.476 64.476 0 0 0-1.875 1.788h3.439zm18.428 0H26.835a.897.897 0 0 1-.894-.894c0-.492.402-.894.894-.894h14.886c.492 0 .894.402.894.894a.897.897 0 0 1-.894.894zm49.347-3.41H85.26a.897.897 0 0 1-.894-.894c0-.492.402-.894.894-.894h5.808c.491 0 .894.402.894.894a.897.897 0 0 1-.894.894zm3.542 0h11.812a64.522 64.522 0 0 0-2.202-1.788h-9.61c-.492 0-.894.402-.894.893s.402.894.894.894zm-12.35 0h-3.108a.897.897 0 0 1-.894-.894c0-.492.402-.894.894-.894h3.108c.491 0 .894.402.894.894a.897.897 0 0 1-.894.894zM80.463 63.99a.894.894 0 1 1-1.79 0 .895.895 0 0 1 1.79 0zm2.11.9h6.59a.895.895 0 1 0 0-1.79h-6.59a.9.9 0 0 0-.9.89c0 .49.41.9.9.9zm.87 50.28a.894.894 0 1 1-1.79 0 .894.894 0 0 1 1.79 0zm2.11.9h6.591a.895.895 0 1 0 0-1.79h-6.59a.9.9 0 0 0-.901.89c0 .49.41.9.9.9zm-15.39-5.946a.894.894 0 1 1-1.791 0 .894.894 0 0 1 1.79 0zm2.109.9h12.591a.895.895 0 1 0 0-1.79h-12.59a.9.9 0 0 0-.9.89c0 .49.41.9.899.9zm-31.26-36.192a.894.894 0 1 1-1.79 0 .894.894 0 0 1 1.79 0zm2.11.9h6.591a.895.895 0 1 0 0-1.79h-6.59a.9.9 0 0 0-.901.89c0 .49.41.9.9.9zM26.216 66.18a.894.894 0 1 1-1.79 0 .894.894 0 0 1 1.79 0zm2.11.9h12.591a.895.895 0 0 0 0-1.79h-12.59a.9.9 0 0 0-.9.89c0 .49.41.9.899.9zm5.688 46.136a.894.894 0 1 1-1.79 0 .894.894 0 0 1 1.79 0zm2.11.9h12.591a.895.895 0 0 0 0-1.79h-12.59a.9.9 0 0 0-.9.89c0 .49.41.9.9.9z"></path>
  <path fill="#5F4D77" d="M87.309 75.992c-.12 0-.236.016-.355.018a34.79 34.79 0 0 0-15.686-8.777v-2.637a14.219 14.219 0 0 0 5.618-10.15c2.475-.142 4.444-2.176 4.444-4.687a4.706 4.706 0 0 0-2.119-3.931 19.17 19.17 0 0 0 2.772-9.926c0-10.654-8.636-19.29-19.29-19.29s-19.29 8.636-19.29 19.29a19.17 19.17 0 0 0 2.772 9.926 4.706 4.706 0 0 0-2.119 3.931c0 2.509 1.965 4.54 4.437 4.687.353 4.148 2.483 7.78 5.625 10.153v2.633C39.02 71.054 27.836 84.736 27.836 101.03a5.244 5.244 0 0 0 5.244 5.244h38.85c3.465 4.742 9.053 7.835 15.379 7.835 10.522 0 19.05-8.536 19.05-19.058s-8.528-19.058-19.05-19.058z"></path>
  <path fill="#168DE2" d="M90.133 104.102a5.244 5.244 0 0 0 5.244-5.245c0-19.25-15.6-34.862-34.862-34.862-19.239 0-34.85 15.612-34.85 34.862a5.244 5.244 0 0 0 5.244 5.245h59.224z"></path>
  <path fill="#2E6BCE" d="M95.377 98.89c-.003 2.882-2.364 5.211-5.246 5.211H30.912a5.266 5.266 0 0 1-3.712-1.534 5.219 5.219 0 0 1-1.523-3.465c.086.01.16.01.247.01h47.498c11.014 0 18.102-11.712 12.969-21.458a34.92 34.92 0 0 0-3.866-5.833 35.115 35.115 0 0 1 2.65 2.392c6.315 6.316 10.211 15.04 10.202 24.678z"></path>
  <path fill="#FFBF9C" d="M51.947 52.303v14.055a8.575 8.575 0 0 0 17.15 0V52.303h-17.15z"></path>
  <circle cx="74.444" cy="47.588" r="4.715" fill="#FFBF9C"></circle>
  <circle cx="46.599" cy="47.588" r="4.715" fill="#FFBF9C"></circle>
  <circle cx="60.522" cy="33.731" r="19.29" fill="#ED6E2E"></circle>
  <path fill="#FFCEAB" d="M74.776 39.53v11.523c0 7.873-6.376 14.258-14.258 14.258-7.873 0-14.259-6.385-14.259-14.258V39.53c0-.776.065-1.543.185-2.283.85.453 1.812.703 2.846.703 2.412 0 4.5-1.387 5.508-3.41 2.365 3.197 6.09 5.35 10.257 5.581a13.648 13.648 0 0 0 9.5-3.105c.147.814.221 1.654.221 2.514z"></path>
  <path fill="#ED6E2E" d="M74.34 50.197h-.195a1.333 1.333 0 0 1-1.332-1.332V36.842c0-.736.597-1.333 1.332-1.333h.195c.736 0 1.332.597 1.332 1.333v12.023c0 .736-.596 1.332-1.332 1.332zm-27.442 0h-.194a1.333 1.333 0 0 1-1.333-1.332V36.842c0-.736.597-1.333 1.333-1.333h.194c.736 0 1.333.597 1.333 1.333v12.023c0 .736-.597 1.332-1.333 1.332z"></path>
  <circle cx="54.66" cy="46.657" r="1.593" fill="#2F4867"></circle>
  <circle cx="66.384" cy="46.657" r="1.593" fill="#2F4867"></circle>
  <path fill="#2F4867" d="M69.588 44.14h-5.443a.549.549 0 0 1-.548-.55v-.08c0-.302.245-.548.548-.548h5.443c.303 0 .549.246.549.549v.08a.549.549 0 0 1-.55.548zm-12.69 0h-5.442a.549.549 0 0 1-.549-.55v-.08c0-.302.246-.548.549-.548h5.442c.303 0 .549.246.549.549v.08a.549.549 0 0 1-.549.548z"></path>
  <path fill="#FFBF9C" d="M62.159 51.484c-.352.988-.955 1.637-1.645 1.637-.682 0-1.285-.65-1.637-1.637a3.53 3.53 0 0 0 1.637.393 3.56 3.56 0 0 0 1.645-.393zM60.332 59.087a6.37 6.37 0 0 1-1.663-.222 6.4 6.4 0 0 1-.88-.316.372.372 0 0 1-.19-.488.373.373 0 0 1 .487-.19c.28.123.535.215.777.281.48.131.974.197 1.471.197 2.098 0 4.08-1.188 5.047-3.028a.37.37 0 0 1 .656.345c-1.096 2.079-3.335 3.421-5.705 3.421z"></path>
  <path fill="#39ACE5" d="M29.845 95.737a1 1 0 0 1-.992-1.132A31.704 31.704 0 0 1 32.09 84.27a1 1 0 0 1 1.78.915 29.685 29.685 0 0 0-3.034 9.684 1 1 0 0 1-.99.868zM34.794 82.649a1 1 0 0 1-.83-1.557A32.182 32.182 0 0 1 45.54 70.63a1 1 0 0 1 .939 1.765 30.17 30.17 0 0 0-10.854 9.812 1 1 0 0 1-.832.443z"></path>
  <path fill="#FAD553" d="M104.188 92.879c0 10.522-8.529 19.058-19.05 19.058-10.53 0-19.059-8.536-19.059-19.058S74.607 73.82 85.137 73.82c10.522 0 19.05 8.536 19.05 19.058z"></path>
  <path fill="#FAB941" d="M104.184 92.88c0 10.524-8.528 19.053-19.042 19.053a19.003 19.003 0 0 1-15.255-7.628 18.982 18.982 0 0 0 11.404 3.787c10.524 0 19.053-8.54 19.053-19.053a19 19 0 0 0-3.809-11.436 19.047 19.047 0 0 1 7.65 15.277z"></path>
  <path fill="#FCDE7E" d="M92.677 79.49a.534.534 0 0 1-.256-.066 15.13 15.13 0 0 0-4.64-1.62.536.536 0 1 1 .184-1.057 16.21 16.21 0 0 1 4.97 1.735.537.537 0 0 1-.258 1.008zM82.543 77.787a.536.536 0 0 1-.085-1.065c.88-.146 1.782-.22 2.68-.22a.536.536 0 1 1 0 1.073c-.84 0-1.683.07-2.507.205a.5.5 0 0 1-.088.007zM70.635 87.047a.537.537 0 0 1-.491-.753 16.57 16.57 0 0 1 8.849-8.596.537.537 0 0 1 .404.994 15.48 15.48 0 0 0-8.27 8.035.538.538 0 0 1-.492.32zM69.31 92.787h-.02a.536.536 0 0 1-.516-.557c.045-1.147.21-2.289.492-3.393a.536.536 0 1 1 1.04.265 15.259 15.259 0 0 0-.46 3.17.537.537 0 0 1-.535.515zM71.03 100.616a.536.536 0 0 1-.477-.292 16.207 16.207 0 0 1-1.72-5.903.537.537 0 0 1 1.07-.1c.18 1.932.72 3.787 1.605 5.514a.537.537 0 0 1-.477.78z"></path>
  <path fill="#F34B50" d="M95.59 92.883a2.417 2.417 0 0 1-2.418 2.418h-5.617v5.616a2.417 2.417 0 0 1-2.417 2.418h-.009a2.417 2.417 0 0 1-2.417-2.418v-5.616h-5.617a2.417 2.417 0 1 1 0-4.835h5.617V84.84a2.417 2.417 0 0 1 2.417-2.417h.009a2.417 2.417 0 0 1 2.417 2.417v5.626h5.617a2.417 2.417 0 0 1 2.417 2.417z"></path>
</svg>
