<svg xmlns="http://www.w3.org/2000/svg" width="24" height="24" fill="none" viewBox="0 0 24 24" id="user-block">
  <path fill="url(#paint0_linear_1233_4621)" fill-rule="evenodd" d="M7 7C7 5.34315 8.34315 4 10 4C11.6569 4 13 5.34315 13 7C13 8.65685 11.6569 10 10 10C8.34315 10 7 8.65685 7 7ZM10 2C7.23858 2 5 4.23858 5 7C5 9.76142 7.23858 12 10 12C5.02944 12 1 16.0294 1 21C1 21.5523 1.44772 22 2 22H18C18.5523 22 19 21.5523 19 21C19 16.0294 14.9706 12 10 12C12.7614 12 15 9.76142 15 7C15 4.23858 12.7614 2 10 2ZM17 11C17 9.89543 17.8954 9 19 9C19.1792 9 19.3528 9.02356 19.518 9.06774L17.0677 11.518C17.0236 11.3528 17 11.1792 17 11ZM18.482 12.9323C18.6472 12.9764 18.8208 13 19 13C20.1046 13 21 12.1046 21 11C21 10.8208 20.9764 10.6472 20.9323 10.482L18.482 12.9323ZM19 7C16.7909 7 15 8.79086 15 11C15 13.2091 16.7909 15 19 15C21.2091 15 23 13.2091 23 11C23 8.79086 21.2091 7 19 7ZM16.9291 20C16.4439 16.6077 13.5265 14 10 14C6.47353 14 3.55612 16.6077 3.07089 20H16.9291Z" clip-rule="evenodd"></path>
  <defs>
    <linearGradient id="paint0_linear_1233_4621" x1="12" x2="12" y1="2" y2="22" gradientUnits="userSpaceOnUse">
      <stop stop-color="#F857A6"></stop>
      <stop offset="1" stop-color="#FF585A"></stop>
    </linearGradient>
  </defs>
</svg>
